<svg width="329" height="20" viewBox="0 0 329 20" fill="none" xmlns="http://www.w3.org/2000/svg">
<path d="M3.06587 15.707H0.815874L4.91246 4.07067H7.51474L11.617 15.707H9.36701L6.25906 6.45703H6.16815L3.06587 15.707ZM3.13974 11.1445H9.2761V12.8377H3.13974V11.1445ZM15.1156 4.07067V15.707H13.0588V4.07067H15.1156ZM19.2875 4.07067V15.707H17.2306V4.07067H19.2875ZM25.3713 15.707V6.97976H27.3656V8.4343H27.4565C27.6156 7.93052 27.8883 7.54226 28.2747 7.26953C28.6648 6.99302 29.1099 6.85476 29.6099 6.85476C29.7235 6.85476 29.8504 6.86044 29.9906 6.8718C30.1345 6.87938 30.2538 6.89264 30.3485 6.91158V8.80362C30.2614 8.77332 30.1232 8.7468 29.9338 8.72408C29.7482 8.69756 29.5682 8.6843 29.394 8.6843C29.019 8.6843 28.6819 8.76574 28.3826 8.92862C28.0872 9.08771 27.8542 9.3093 27.6838 9.59339C27.5133 9.87749 27.4281 10.2051 27.4281 10.5763V15.707H25.3713ZM31.715 15.707V6.97976H33.7718V15.707H31.715ZM32.7491 5.74112C32.4234 5.74112 32.1431 5.63317 31.9082 5.41726C31.6734 5.19756 31.5559 4.9343 31.5559 4.62749C31.5559 4.31688 31.6734 4.05362 31.9082 3.83771C32.1431 3.61802 32.4234 3.50817 32.7491 3.50817C33.0787 3.50817 33.359 3.61802 33.59 3.83771C33.8249 4.05362 33.9423 4.31688 33.9423 4.62749C33.9423 4.9343 33.8249 5.19756 33.59 5.41726C33.359 5.63317 33.0787 5.74112 32.7491 5.74112ZM39.6824 19.1616C38.9437 19.1616 38.3092 19.0612 37.7789 18.8604C37.2486 18.6635 36.8225 18.3983 36.5005 18.065C36.1786 17.7317 35.9551 17.3623 35.8301 16.957L37.6824 16.5082C37.7657 16.6786 37.8869 16.8472 38.046 17.0138C38.2051 17.1843 38.4191 17.3245 38.688 17.4343C38.9608 17.5479 39.3036 17.6048 39.7164 17.6048C40.2998 17.6048 40.7827 17.4627 41.1653 17.1786C41.5479 16.8983 41.7392 16.4362 41.7392 15.7923V14.1388H41.6369C41.5308 14.351 41.3755 14.5688 41.171 14.7923C40.9702 15.0157 40.7032 15.2032 40.3699 15.3548C40.0403 15.5063 39.6255 15.582 39.1255 15.582C38.4551 15.582 37.8471 15.4248 37.3017 15.1104C36.76 14.7923 36.3282 14.3188 36.0062 13.69C35.688 13.0574 35.5289 12.2657 35.5289 11.315C35.5289 10.3567 35.688 9.54794 36.0062 8.88885C36.3282 8.22597 36.7619 7.72408 37.3074 7.38317C37.8528 7.03847 38.4608 6.86612 39.1312 6.86612C39.6426 6.86612 40.063 6.95324 40.3926 7.12749C40.7259 7.29794 40.9911 7.50438 41.188 7.7468C41.385 7.98544 41.5346 8.21082 41.6369 8.42294H41.7505V6.97976H43.7789V15.8491C43.7789 16.5953 43.6009 17.2127 43.2449 17.7013C42.8888 18.19 42.402 18.5555 41.7846 18.7979C41.1672 19.0404 40.4664 19.1616 39.6824 19.1616ZM39.6994 13.9684C40.135 13.9684 40.5062 13.8623 40.813 13.6502C41.1199 13.4381 41.3528 13.1332 41.5119 12.7354C41.671 12.3377 41.7505 11.8604 41.7505 11.3036C41.7505 10.7544 41.671 10.2733 41.5119 9.86044C41.3566 9.44756 41.1255 9.12749 40.8187 8.90021C40.5157 8.66915 40.1426 8.55362 39.6994 8.55362C39.2411 8.55362 38.8585 8.67294 38.5517 8.91158C38.2449 9.15021 38.0138 9.47786 37.8585 9.89453C37.7032 10.3074 37.6255 10.7771 37.6255 11.3036C37.6255 11.8377 37.7032 12.3055 37.8585 12.707C38.0176 13.1048 38.2505 13.4154 38.5574 13.6388C38.868 13.8585 39.2486 13.9684 39.6994 13.9684ZM47.9437 10.5934V15.707H45.8869V4.07067H47.8983V8.46271H48.0005C48.2051 7.97029 48.5214 7.58203 48.9494 7.29794C49.3812 7.01006 49.9305 6.86612 50.5971 6.86612C51.2032 6.86612 51.7316 6.99302 52.1824 7.2468C52.6331 7.50059 52.9816 7.8718 53.2278 8.36044C53.4778 8.84908 53.6028 9.44567 53.6028 10.1502V15.707H51.546V10.4684C51.546 9.88127 51.3945 9.42483 51.0914 9.09908C50.7922 8.76953 50.3717 8.60476 49.8301 8.60476C49.4664 8.60476 49.1407 8.6843 48.8528 8.84339C48.5687 8.9987 48.3452 9.22408 48.1824 9.51953C48.0233 9.81499 47.9437 10.1729 47.9437 10.5934ZM60.0574 6.97976V8.57067H55.0403V6.97976H60.0574ZM56.2789 4.88885H58.3358V13.082C58.3358 13.3585 58.3774 13.5707 58.4608 13.7184C58.5479 13.8623 58.6615 13.9608 58.8017 14.0138C58.9418 14.0669 59.0971 14.0934 59.2676 14.0934C59.3964 14.0934 59.5138 14.0839 59.6199 14.065C59.7297 14.046 59.813 14.029 59.8699 14.0138L60.2164 15.6218C60.1066 15.6597 59.9494 15.7013 59.7449 15.7468C59.5441 15.7923 59.2979 15.8188 59.0062 15.8263C58.4911 15.8415 58.027 15.7638 57.6142 15.5934C57.2013 15.4192 56.8736 15.1502 56.6312 14.7866C56.3926 14.4229 56.2752 13.9684 56.2789 13.4229V4.88885ZM68.5502 9.28658L66.6752 9.49112C66.6222 9.30173 66.5294 9.1237 66.3968 8.95703C66.2681 8.79036 66.0938 8.65589 65.8741 8.55362C65.6544 8.45135 65.3855 8.40021 65.0673 8.40021C64.6393 8.40021 64.2794 8.49302 63.9877 8.67862C63.6999 8.86423 63.5578 9.10476 63.5616 9.40021C63.5578 9.654 63.6506 9.86044 63.84 10.0195C64.0332 10.1786 64.3514 10.3093 64.7946 10.4116L66.2832 10.7298C67.109 10.9078 67.7226 11.19 68.1241 11.5763C68.5294 11.9627 68.734 12.4684 68.7377 13.0934C68.734 13.6426 68.573 14.1275 68.2548 14.5479C67.9404 14.9646 67.5029 15.2904 66.9423 15.5252C66.3817 15.7601 65.7377 15.8775 65.0105 15.8775C63.9423 15.8775 63.0824 15.654 62.4309 15.207C61.7794 14.7563 61.3912 14.1294 61.2662 13.3263L63.2718 13.1332C63.3627 13.5271 63.5559 13.8245 63.8514 14.0252C64.1468 14.226 64.5313 14.3263 65.0048 14.3263C65.4934 14.3263 65.8855 14.226 66.1809 14.0252C66.4802 13.8245 66.6298 13.5763 66.6298 13.2809C66.6298 13.0309 66.5332 12.8245 66.34 12.6616C66.1506 12.4987 65.8552 12.3737 65.4537 12.2866L63.965 11.9741C63.1279 11.7998 62.5086 11.5063 62.1071 11.0934C61.7056 10.6767 61.5067 10.1502 61.5105 9.51385C61.5067 8.97597 61.6525 8.51006 61.948 8.11612C62.2472 7.71839 62.662 7.41158 63.1923 7.19567C63.7264 6.97597 64.3419 6.86612 65.0389 6.86612C66.0616 6.86612 66.8665 7.08393 67.4537 7.51953C68.0446 7.95514 68.4101 8.54415 68.5502 9.28658ZM74.4025 15.707V6.97976H76.3968V8.4343H76.4877C76.6468 7.93052 76.9196 7.54226 77.3059 7.26953C77.6961 6.99302 78.1412 6.85476 78.6412 6.85476C78.7548 6.85476 78.8817 6.86044 79.0218 6.8718C79.1658 6.87938 79.2851 6.89264 79.3798 6.91158V8.80362C79.2927 8.77332 79.1544 8.7468 78.965 8.72408C78.7794 8.69756 78.5995 8.6843 78.4252 8.6843C78.0502 8.6843 77.7131 8.76574 77.4139 8.92862C77.1184 9.08771 76.8855 9.3093 76.715 9.59339C76.5446 9.87749 76.4593 10.2051 76.4593 10.5763V15.707H74.4025ZM84.2505 15.8775C83.3755 15.8775 82.6199 15.6957 81.9835 15.332C81.3509 14.9646 80.8642 14.4457 80.5233 13.7752C80.1824 13.101 80.0119 12.3074 80.0119 11.3945C80.0119 10.4968 80.1824 9.70893 80.5233 9.03089C80.868 8.34908 81.349 7.81877 81.9664 7.43999C82.5839 7.05741 83.3092 6.86612 84.1426 6.86612C84.6805 6.86612 85.188 6.95324 85.6653 7.12749C86.1464 7.29794 86.5706 7.56309 86.938 7.92294C87.3092 8.28279 87.6009 8.74112 87.813 9.29794C88.0252 9.85097 88.1312 10.5101 88.1312 11.2752V11.9059H80.9778V10.5195H86.1596C86.1558 10.1256 86.0706 9.77521 85.9039 9.46839C85.7373 9.15779 85.5043 8.91347 85.2051 8.73544C84.9096 8.55741 84.5649 8.46839 84.171 8.46839C83.7505 8.46839 83.3812 8.57067 83.063 8.77521C82.7449 8.97597 82.4967 9.24112 82.3187 9.57067C82.1445 9.89642 82.0555 10.2544 82.0517 10.6445V11.8548C82.0517 12.3623 82.1445 12.7979 82.3301 13.1616C82.5157 13.5214 82.7752 13.7979 83.1085 13.9911C83.4418 14.1805 83.832 14.2752 84.2789 14.2752C84.5782 14.2752 84.849 14.2335 85.0914 14.1502C85.3339 14.0631 85.5441 13.9362 85.7221 13.7695C85.9002 13.6029 86.0346 13.3964 86.1255 13.1502L88.046 13.3661C87.9248 13.8737 87.6937 14.3169 87.3528 14.6957C87.0157 15.0707 86.5839 15.3623 86.0574 15.5707C85.5308 15.7752 84.9286 15.8775 84.2505 15.8775ZM96.769 9.28658L94.894 9.49112C94.841 9.30173 94.7482 9.1237 94.6156 8.95703C94.4868 8.79036 94.3126 8.65589 94.0929 8.55362C93.8732 8.45135 93.6042 8.40021 93.286 8.40021C92.858 8.40021 92.4982 8.49302 92.2065 8.67862C91.9186 8.86423 91.7766 9.10476 91.7804 9.40021C91.7766 9.654 91.8694 9.86044 92.0588 10.0195C92.252 10.1786 92.5701 10.3093 93.0133 10.4116L94.502 10.7298C95.3277 10.9078 95.9413 11.19 96.3429 11.5763C96.7482 11.9627 96.9527 12.4684 96.9565 13.0934C96.9527 13.6426 96.7917 14.1275 96.4735 14.5479C96.1592 14.9646 95.7217 15.2904 95.161 15.5252C94.6004 15.7601 93.9565 15.8775 93.2292 15.8775C92.161 15.8775 91.3012 15.654 90.6497 15.207C89.9982 14.7563 89.6099 14.1294 89.4849 13.3263L91.4906 13.1332C91.5815 13.5271 91.7747 13.8245 92.0701 14.0252C92.3656 14.226 92.7501 14.3263 93.2235 14.3263C93.7122 14.3263 94.1042 14.226 94.3997 14.0252C94.6989 13.8245 94.8485 13.5763 94.8485 13.2809C94.8485 13.0309 94.752 12.8245 94.5588 12.6616C94.3694 12.4987 94.0739 12.3737 93.6724 12.2866L92.1838 11.9741C91.3467 11.7998 90.7273 11.5063 90.3258 11.0934C89.9243 10.6767 89.7254 10.1502 89.7292 9.51385C89.7254 8.97597 89.8713 8.51006 90.1667 8.11612C90.466 7.71839 90.8807 7.41158 91.411 7.19567C91.9451 6.97597 92.5607 6.86612 93.2576 6.86612C94.2804 6.86612 95.0853 7.08393 95.6724 7.51953C96.2633 7.95514 96.6288 8.54415 96.769 9.28658ZM102.516 15.8775C101.641 15.8775 100.885 15.6957 100.249 15.332C99.6165 14.9646 99.1298 14.4457 98.7889 13.7752C98.448 13.101 98.2775 12.3074 98.2775 11.3945C98.2775 10.4968 98.448 9.70893 98.7889 9.03089C99.1336 8.34908 99.6146 7.81877 100.232 7.43999C100.849 7.05741 101.575 6.86612 102.408 6.86612C102.946 6.86612 103.454 6.95324 103.931 7.12749C104.412 7.29794 104.836 7.56309 105.204 7.92294C105.575 8.28279 105.867 8.74112 106.079 9.29794C106.291 9.85097 106.397 10.5101 106.397 11.2752V11.9059H99.2434V10.5195H104.425C104.421 10.1256 104.336 9.77521 104.17 9.46839C104.003 9.15779 103.77 8.91347 103.471 8.73544C103.175 8.55741 102.831 8.46839 102.437 8.46839C102.016 8.46839 101.647 8.57067 101.329 8.77521C101.01 8.97597 100.762 9.24112 100.584 9.57067C100.41 9.89642 100.321 10.2544 100.317 10.6445V11.8548C100.317 12.3623 100.41 12.7979 100.596 13.1616C100.781 13.5214 101.041 13.7979 101.374 13.9911C101.707 14.1805 102.098 14.2752 102.545 14.2752C102.844 14.2752 103.115 14.2335 103.357 14.1502C103.599 14.0631 103.81 13.9362 103.988 13.7695C104.166 13.6029 104.3 13.3964 104.391 13.1502L106.312 13.3661C106.19 13.8737 105.959 14.3169 105.618 14.6957C105.281 15.0707 104.849 15.3623 104.323 15.5707C103.796 15.7752 103.194 15.8775 102.516 15.8775ZM108.137 15.707V6.97976H110.131V8.4343H110.222C110.381 7.93052 110.654 7.54226 111.04 7.26953C111.43 6.99302 111.876 6.85476 112.376 6.85476C112.489 6.85476 112.616 6.86044 112.756 6.8718C112.9 6.87938 113.019 6.89264 113.114 6.91158V8.80362C113.027 8.77332 112.889 8.7468 112.699 8.72408C112.514 8.69756 112.334 8.6843 112.16 8.6843C111.785 8.6843 111.448 8.76574 111.148 8.92862C110.853 9.08771 110.62 9.3093 110.449 9.59339C110.279 9.87749 110.194 10.2051 110.194 10.5763V15.707H108.137ZM122.542 6.97976L119.434 15.707H117.161L114.053 6.97976H116.246L118.252 13.4627H118.343L120.354 6.97976H122.542ZM127.532 15.8775C126.657 15.8775 125.901 15.6957 125.265 15.332C124.632 14.9646 124.145 14.4457 123.805 13.7752C123.464 13.101 123.293 12.3074 123.293 11.3945C123.293 10.4968 123.464 9.70893 123.805 9.03089C124.149 8.34908 124.63 7.81877 125.248 7.43999C125.865 7.05741 126.59 6.86612 127.424 6.86612C127.962 6.86612 128.469 6.95324 128.947 7.12749C129.428 7.29794 129.852 7.56309 130.219 7.92294C130.59 8.28279 130.882 8.74112 131.094 9.29794C131.306 9.85097 131.412 10.5101 131.412 11.2752V11.9059H124.259V10.5195H129.441C129.437 10.1256 129.352 9.77521 129.185 9.46839C129.019 9.15779 128.786 8.91347 128.486 8.73544C128.191 8.55741 127.846 8.46839 127.452 8.46839C127.032 8.46839 126.662 8.57067 126.344 8.77521C126.026 8.97597 125.778 9.24112 125.6 9.57067C125.426 9.89642 125.337 10.2544 125.333 10.6445V11.8548C125.333 12.3623 125.426 12.7979 125.611 13.1616C125.797 13.5214 126.056 13.7979 126.39 13.9911C126.723 14.1805 127.113 14.2752 127.56 14.2752C127.859 14.2752 128.13 14.2335 128.373 14.1502C128.615 14.0631 128.825 13.9362 129.003 13.7695C129.181 13.6029 129.316 13.3964 129.407 13.1502L131.327 13.3661C131.206 13.8737 130.975 14.3169 130.634 14.6957C130.297 15.0707 129.865 15.3623 129.339 15.5707C128.812 15.7752 128.21 15.8775 127.532 15.8775ZM136.391 15.8604C135.706 15.8604 135.092 15.6843 134.55 15.332C134.009 14.9798 133.581 14.4684 133.266 13.7979C132.952 13.1275 132.795 12.3131 132.795 11.3548C132.795 10.3851 132.954 9.56688 133.272 8.90021C133.594 8.22976 134.028 7.72408 134.573 7.38317C135.118 7.03847 135.726 6.86612 136.397 6.86612C136.908 6.86612 137.329 6.95324 137.658 7.12749C137.988 7.29794 138.249 7.50438 138.442 7.7468C138.635 7.98544 138.785 8.21082 138.891 8.42294H138.976V4.07067H141.039V15.707H139.016V14.332H138.891C138.785 14.5442 138.632 14.7695 138.431 15.0082C138.23 15.243 137.965 15.4438 137.635 15.6104C137.306 15.7771 136.891 15.8604 136.391 15.8604ZM136.965 14.1729C137.401 14.1729 137.772 14.0555 138.079 13.8207C138.385 13.582 138.618 13.2506 138.778 12.8263C138.937 12.4021 139.016 11.9078 139.016 11.3434C139.016 10.779 138.937 10.2885 138.778 9.8718C138.622 9.45514 138.391 9.13127 138.084 8.90021C137.781 8.66915 137.408 8.55362 136.965 8.55362C136.507 8.55362 136.124 8.67294 135.817 8.91158C135.51 9.15021 135.279 9.47976 135.124 9.90021C134.969 10.3207 134.891 10.8017 134.891 11.3434C134.891 11.8888 134.969 12.3756 135.124 12.8036C135.283 13.2279 135.516 13.5631 135.823 13.8093C136.134 14.0517 136.514 14.1729 136.965 14.1729ZM147.29 15.707V4.07067H149.347V8.42294H149.432C149.538 8.21082 149.688 7.98544 149.881 7.7468C150.074 7.50438 150.336 7.29794 150.665 7.12749C150.995 6.95324 151.415 6.86612 151.927 6.86612C152.601 6.86612 153.209 7.03847 153.751 7.38317C154.296 7.72408 154.728 8.22976 155.046 8.90021C155.368 9.56688 155.529 10.3851 155.529 11.3548C155.529 12.3131 155.372 13.1275 155.057 13.7979C154.743 14.4684 154.315 14.9798 153.773 15.332C153.232 15.6843 152.618 15.8604 151.932 15.8604C151.432 15.8604 151.018 15.7771 150.688 15.6104C150.358 15.4438 150.093 15.243 149.893 15.0082C149.696 14.7695 149.542 14.5442 149.432 14.332H149.313V15.707H147.29ZM149.307 11.3434C149.307 11.9078 149.387 12.4021 149.546 12.8263C149.709 13.2506 149.942 13.582 150.245 13.8207C150.552 14.0555 150.923 14.1729 151.358 14.1729C151.813 14.1729 152.194 14.0517 152.501 13.8093C152.807 13.5631 153.038 13.2279 153.194 12.8036C153.353 12.3756 153.432 11.8888 153.432 11.3434C153.432 10.8017 153.355 10.3207 153.199 9.90021C153.044 9.47976 152.813 9.15021 152.506 8.91158C152.199 8.67294 151.817 8.55362 151.358 8.55362C150.919 8.55362 150.546 8.66915 150.239 8.90021C149.932 9.13127 149.699 9.45514 149.54 9.8718C149.385 10.2885 149.307 10.779 149.307 11.3434ZM158.259 18.9798C157.979 18.9798 157.719 18.957 157.481 18.9116C157.246 18.8699 157.058 18.8207 156.918 18.7638L157.395 17.1616C157.695 17.2487 157.962 17.2904 158.197 17.2866C158.431 17.2828 158.638 17.2089 158.816 17.065C158.998 16.9248 159.151 16.69 159.276 16.3604L159.452 15.8888L156.287 6.97976H158.469L160.481 13.5707H160.572L162.589 6.97976H164.776L161.282 16.7638C161.119 17.226 160.903 17.6218 160.634 17.9513C160.365 18.2847 160.036 18.5385 159.645 18.7127C159.259 18.8907 158.797 18.9798 158.259 18.9798ZM177.096 6.45703H183.689C183.981 6.46745 184.221 6.57682 184.408 6.78516C184.606 6.99349 184.705 7.24349 184.705 7.53516C184.653 8.16016 184.314 8.4987 183.689 8.55078H177.627C177.231 8.57161 176.903 8.72266 176.643 9.00391C176.382 9.28516 176.189 9.60807 176.064 9.97266C175.95 10.3268 175.893 10.6914 175.893 11.0664C175.893 11.4414 175.95 11.8112 176.064 12.1758C176.189 12.5299 176.382 12.8477 176.643 13.1289C176.903 13.4102 177.231 13.5612 177.627 13.582H182.377C182.564 13.5716 182.663 13.4674 182.674 13.2695V12.3633C182.663 12.1549 182.564 12.0508 182.377 12.0508H178.377C178.085 12.0508 177.835 11.9518 177.627 11.7539C177.429 11.5456 177.33 11.2956 177.33 11.0039C177.33 10.7122 177.429 10.4622 177.627 10.2539C177.835 10.056 178.085 9.95703 178.377 9.95703H183.721C184.012 9.95703 184.262 10.056 184.471 10.2539C184.658 10.4518 184.757 10.6914 184.768 10.9727V11.0039V14.6602C184.757 14.9414 184.658 15.1758 184.471 15.3633C184.273 15.5612 184.033 15.6654 183.752 15.6758H177.096C176.367 15.6341 175.762 15.3581 175.283 14.8477C174.814 14.3268 174.476 13.7383 174.268 13.082C174.07 12.4258 173.971 11.7539 173.971 11.0664C173.971 10.3789 174.075 9.70703 174.283 9.05078C174.492 8.39453 174.83 7.8112 175.299 7.30078C175.768 6.77995 176.367 6.4987 177.096 6.45703ZM195.439 14.8477V11.082C195.439 10.8216 195.304 10.6862 195.033 10.6758H189.564C189.367 10.6862 189.195 10.7747 189.049 10.9414C188.903 11.0977 188.794 11.2852 188.721 11.5039C188.658 11.7122 188.627 11.9258 188.627 12.1445C188.627 12.3529 188.658 12.5664 188.721 12.7852C188.794 12.9935 188.903 13.181 189.049 13.3477C189.195 13.5039 189.367 13.582 189.564 13.582H193.564C193.856 13.582 194.101 13.6862 194.299 13.8945C194.507 14.0924 194.611 14.3372 194.611 14.6289C194.611 14.9206 194.507 15.1654 194.299 15.3633C194.101 15.5716 193.856 15.6758 193.564 15.6758H189.627C188.898 15.6654 188.294 15.4622 187.814 15.0664C187.346 14.6602 187.007 14.207 186.799 13.707C186.601 13.1966 186.502 12.6706 186.502 12.1289C186.502 11.6081 186.606 11.0977 186.814 10.5977C187.023 10.0872 187.361 9.63411 187.83 9.23828C188.299 8.83203 188.992 8.61328 189.908 8.58203H196.471C196.762 8.58203 197.012 8.68099 197.221 8.87891C197.429 9.06641 197.538 9.30599 197.549 9.59766V14.8477C197.549 15.1393 197.439 15.3841 197.221 15.582C197.012 15.7695 196.762 15.8633 196.471 15.8633C195.846 15.8112 195.502 15.4727 195.439 14.8477ZM202.877 8.34766C203.242 8.34766 203.596 8.41016 203.939 8.53516C204.294 8.66016 204.632 8.84245 204.955 9.08203C205.007 9.13411 205.064 9.1862 205.127 9.23828C205.179 9.1862 205.236 9.13411 205.299 9.08203C205.622 8.84245 205.955 8.66016 206.299 8.53516C206.653 8.41016 207.007 8.34766 207.361 8.34766C207.726 8.34766 208.08 8.41016 208.424 8.53516C208.778 8.66016 209.111 8.84766 209.424 9.09766C209.747 9.33724 210.028 9.66016 210.268 10.0664C210.518 10.4727 210.643 10.957 210.643 11.5195V14.8477C210.58 15.4727 210.236 15.8112 209.611 15.8633C209.32 15.8633 209.064 15.7695 208.846 15.582C208.637 15.3841 208.533 15.1393 208.533 14.8477V11.6445C208.533 11.3945 208.486 11.1862 208.393 11.0195C208.299 10.8424 208.195 10.707 208.08 10.6133C207.965 10.5091 207.846 10.4362 207.721 10.3945C207.596 10.3424 207.471 10.3164 207.346 10.3164C207.221 10.3164 207.096 10.3424 206.971 10.3945C206.856 10.4362 206.742 10.5091 206.627 10.6133C206.512 10.707 206.408 10.8424 206.314 11.0195C206.221 11.1862 206.169 11.3945 206.158 11.6445V14.8477C206.096 15.4727 205.752 15.8112 205.127 15.8633C204.835 15.8633 204.58 15.7695 204.361 15.582C204.153 15.3841 204.049 15.1393 204.049 14.8477V11.6445C204.049 11.3945 204.002 11.1862 203.908 11.0195C203.814 10.8424 203.71 10.707 203.596 10.6133C203.481 10.5091 203.361 10.4362 203.236 10.3945C203.111 10.3424 202.986 10.3164 202.861 10.3164C202.736 10.3164 202.611 10.3424 202.486 10.3945C202.372 10.4362 202.257 10.5091 202.143 10.6133C202.028 10.707 201.924 10.8424 201.83 11.0195C201.736 11.1862 201.684 11.3945 201.674 11.6445V14.8477C201.622 15.4727 201.283 15.8112 200.658 15.8633C200.367 15.8633 200.111 15.7695 199.893 15.582C199.684 15.3841 199.58 15.1393 199.58 14.8477V11.5195C199.601 10.957 199.731 10.4727 199.971 10.0664C200.21 9.66016 200.492 9.33724 200.814 9.09766C201.137 8.84766 201.471 8.66016 201.814 8.53516C202.169 8.41016 202.523 8.34766 202.877 8.34766ZM215.783 15.6758C214.867 15.6445 214.174 15.431 213.705 15.0352C213.236 14.6289 212.898 14.1758 212.689 13.6758C212.481 13.1654 212.377 12.6497 212.377 12.1289C212.377 11.5872 212.476 11.0664 212.674 10.5664C212.882 10.056 213.221 9.60286 213.689 9.20703C214.169 8.80078 214.773 8.59245 215.502 8.58203H221.439C221.731 8.58203 221.976 8.68099 222.174 8.87891C222.382 9.06641 222.486 9.29557 222.486 9.56641C222.486 9.84766 222.382 10.0872 222.174 10.2852C221.976 10.4727 221.731 10.5664 221.439 10.5664H215.596C215.367 10.5664 215.163 10.6445 214.986 10.8008C214.82 10.957 214.695 11.1602 214.611 11.4102C214.538 11.6602 214.502 11.9049 214.502 12.1445C214.502 12.4049 214.538 12.6602 214.611 12.9102C214.695 13.1602 214.82 13.3633 214.986 13.5195C215.163 13.6654 215.367 13.7435 215.596 13.7539H221.439C221.731 13.7539 221.976 13.8477 222.174 14.0352C222.382 14.2227 222.486 14.4466 222.486 14.707C222.486 14.9779 222.382 15.207 222.174 15.3945C221.976 15.582 221.731 15.6758 221.439 15.6758H215.783ZM222.299 12.0977C222.299 12.2956 222.21 12.4674 222.033 12.6133C221.877 12.7487 221.679 12.8164 221.439 12.8164H216.33C216.09 12.8164 215.887 12.7487 215.721 12.6133C215.554 12.4674 215.471 12.2956 215.471 12.0977C215.471 11.9102 215.554 11.7435 215.721 11.5977C215.887 11.4622 216.09 11.3945 216.33 11.3945H221.439C221.679 11.3945 221.882 11.4674 222.049 11.6133C222.215 11.7487 222.299 11.9102 222.299 12.0977ZM227.252 6.45703H233.846C234.137 6.46745 234.377 6.57682 234.564 6.78516C234.762 6.99349 234.861 7.24349 234.861 7.53516C234.809 8.16016 234.471 8.4987 233.846 8.55078H227.783C227.387 8.57161 227.059 8.72266 226.799 9.00391C226.538 9.28516 226.346 9.60807 226.221 9.97266C226.106 10.3268 226.049 10.6914 226.049 11.0664C226.049 11.4414 226.106 11.8112 226.221 12.1758C226.346 12.5299 226.538 12.8477 226.799 13.1289C227.059 13.4102 227.387 13.5612 227.783 13.582H232.533C232.721 13.5716 232.82 13.4674 232.83 13.2695V12.3633C232.82 12.1549 232.721 12.0508 232.533 12.0508H228.533C228.242 12.0508 227.992 11.9518 227.783 11.7539C227.585 11.5456 227.486 11.2956 227.486 11.0039C227.486 10.7122 227.585 10.4622 227.783 10.2539C227.992 10.056 228.242 9.95703 228.533 9.95703H233.877C234.169 9.95703 234.419 10.056 234.627 10.2539C234.814 10.4518 234.913 10.6914 234.924 10.9727V11.0039V14.6602C234.913 14.9414 234.814 15.1758 234.627 15.3633C234.429 15.5612 234.189 15.6654 233.908 15.6758H227.252C226.523 15.6341 225.919 15.3581 225.439 14.8477C224.971 14.3268 224.632 13.7383 224.424 13.082C224.226 12.4258 224.127 11.7539 224.127 11.0664C224.127 10.3789 224.231 9.70703 224.439 9.05078C224.648 8.39453 224.986 7.8112 225.455 7.30078C225.924 6.77995 226.523 6.4987 227.252 6.45703ZM240.064 15.6758C239.148 15.6445 238.455 15.431 237.986 15.0352C237.518 14.6289 237.179 14.1758 236.971 13.6758C236.762 13.1654 236.658 12.6497 236.658 12.1289C236.658 11.5872 236.757 11.0664 236.955 10.5664C237.163 10.056 237.502 9.60286 237.971 9.20703C238.45 8.80078 239.054 8.59245 239.783 8.58203H245.721C246.012 8.58203 246.257 8.68099 246.455 8.87891C246.663 9.06641 246.768 9.29557 246.768 9.56641C246.768 9.84766 246.663 10.0872 246.455 10.2852C246.257 10.4727 246.012 10.5664 245.721 10.5664H239.877C239.648 10.5664 239.445 10.6445 239.268 10.8008C239.101 10.957 238.976 11.1602 238.893 11.4102C238.82 11.6602 238.783 11.9049 238.783 12.1445C238.783 12.4049 238.82 12.6602 238.893 12.9102C238.976 13.1602 239.101 13.3633 239.268 13.5195C239.445 13.6654 239.648 13.7435 239.877 13.7539H245.721C246.012 13.7539 246.257 13.8477 246.455 14.0352C246.663 14.2227 246.768 14.4466 246.768 14.707C246.768 14.9779 246.663 15.207 246.455 15.3945C246.257 15.582 246.012 15.6758 245.721 15.6758H240.064ZM246.58 12.0977C246.58 12.2956 246.492 12.4674 246.314 12.6133C246.158 12.7487 245.96 12.8164 245.721 12.8164H240.611C240.372 12.8164 240.169 12.7487 240.002 12.6133C239.835 12.4674 239.752 12.2956 239.752 12.0977C239.752 11.9102 239.835 11.7435 240.002 11.5977C240.169 11.4622 240.372 11.3945 240.611 11.3945H245.721C245.96 11.3945 246.163 11.4674 246.33 11.6133C246.497 11.7487 246.58 11.9102 246.58 12.0977ZM251.768 15.6758C250.851 15.6445 250.158 15.431 249.689 15.0352C249.221 14.6289 248.882 14.1758 248.674 13.6758C248.465 13.1654 248.361 12.6497 248.361 12.1289C248.361 11.5872 248.46 11.0664 248.658 10.5664C248.867 10.056 249.205 9.60286 249.674 9.20703C250.153 8.80078 250.757 8.59245 251.486 8.58203H257.424C257.715 8.58203 257.96 8.68099 258.158 8.87891C258.367 9.06641 258.471 9.29557 258.471 9.56641C258.471 9.84766 258.367 10.0872 258.158 10.2852C257.96 10.4727 257.715 10.5664 257.424 10.5664H251.58C251.351 10.5664 251.148 10.6445 250.971 10.8008C250.804 10.957 250.679 11.1602 250.596 11.4102C250.523 11.6602 250.486 11.9049 250.486 12.1445C250.486 12.4049 250.523 12.6602 250.596 12.9102C250.679 13.1602 250.804 13.3633 250.971 13.5195C251.148 13.6654 251.351 13.7435 251.58 13.7539H257.424C257.715 13.7539 257.96 13.8477 258.158 14.0352C258.367 14.2227 258.471 14.4466 258.471 14.707C258.471 14.9779 258.367 15.207 258.158 15.3945C257.96 15.582 257.715 15.6758 257.424 15.6758H251.768ZM258.283 12.0977C258.283 12.2956 258.195 12.4674 258.018 12.6133C257.861 12.7487 257.663 12.8164 257.424 12.8164H252.314C252.075 12.8164 251.872 12.7487 251.705 12.6133C251.538 12.4674 251.455 12.2956 251.455 12.0977C251.455 11.9102 251.538 11.7435 251.705 11.5977C251.872 11.4622 252.075 11.3945 252.314 11.3945H257.424C257.663 11.3945 257.867 11.4674 258.033 11.6133C258.2 11.7487 258.283 11.9102 258.283 12.0977ZM261.346 6.20703C261.627 6.21745 261.867 6.32161 262.064 6.51953C262.262 6.70703 262.367 6.94141 262.377 7.22266V14.8789C262.314 15.5039 261.971 15.8424 261.346 15.8945C261.054 15.8945 260.799 15.8008 260.58 15.6133C260.372 15.4154 260.268 15.1706 260.268 14.8789V7.22266C260.278 6.93099 260.387 6.69141 260.596 6.50391C260.804 6.30599 261.054 6.20703 261.346 6.20703ZM263.33 10.5664C263.632 10.0768 264.21 9.71745 265.064 9.48828L269.08 8.41016C269.361 8.32682 269.627 8.35286 269.877 8.48828C270.137 8.61328 270.309 8.81641 270.393 9.09766C270.486 9.36849 270.465 9.63411 270.33 9.89453C270.205 10.1445 270.002 10.3164 269.721 10.4102L265.439 11.5195C265.137 11.6341 264.992 11.832 265.002 12.1133C264.992 12.3945 265.137 12.5924 265.439 12.707L269.721 13.8164C270.002 13.9102 270.205 14.0872 270.33 14.3477C270.465 14.5977 270.486 14.8581 270.393 15.1289C270.309 15.4102 270.137 15.6133 269.877 15.7383C269.627 15.8737 269.361 15.8997 269.08 15.8164L265.064 14.7383C264.2 14.4987 263.617 14.1341 263.314 13.6445C263.023 13.1549 262.877 12.6445 262.877 12.1133C262.877 11.582 263.028 11.0664 263.33 10.5664ZM282.914 0.320667V19.457H281.005V0.320667H282.914ZM289.833 15.707V14.1843L293.873 10.2241C294.259 9.83393 294.581 9.48733 294.839 9.1843C295.096 8.88127 295.289 8.58771 295.418 8.30362C295.547 8.01953 295.611 7.7165 295.611 7.39453C295.611 7.02711 295.528 6.71271 295.361 6.45135C295.195 6.1862 294.965 5.98165 294.674 5.83771C294.382 5.69377 294.051 5.6218 293.68 5.6218C293.297 5.6218 292.962 5.70135 292.674 5.86044C292.386 6.01574 292.162 6.23733 292.003 6.52521C291.848 6.81309 291.77 7.15589 291.77 7.55362H289.765C289.765 6.81499 289.933 6.17294 290.27 5.62749C290.608 5.08203 291.072 4.65968 291.662 4.36044C292.257 4.0612 292.939 3.91158 293.708 3.91158C294.488 3.91158 295.174 4.05741 295.765 4.34908C296.356 4.64074 296.814 5.04036 297.14 5.54794C297.469 6.05552 297.634 6.63506 297.634 7.28658C297.634 7.72218 297.551 8.15021 297.384 8.57067C297.217 8.99112 296.924 9.45703 296.503 9.96839C296.087 10.4798 295.501 11.0991 294.748 11.8263L292.742 13.8661V13.9457H297.81V15.707H289.833ZM304.072 15.9286C303.136 15.9286 302.333 15.6919 301.662 15.2184C300.996 14.7411 300.483 14.0536 300.123 13.1559C299.767 12.2544 299.589 11.1692 299.589 9.90021C299.592 8.63127 299.772 7.55173 300.128 6.66158C300.488 5.76764 301.001 5.08582 301.668 4.61612C302.339 4.14642 303.14 3.91158 304.072 3.91158C305.003 3.91158 305.805 4.14642 306.475 4.61612C307.145 5.08582 307.659 5.76764 308.015 6.66158C308.375 7.55552 308.555 8.63506 308.555 9.90021C308.555 11.1729 308.375 12.2601 308.015 13.1616C307.659 14.0593 307.145 14.7449 306.475 15.2184C305.808 15.6919 305.007 15.9286 304.072 15.9286ZM304.072 14.1502C304.799 14.1502 305.373 13.7923 305.793 13.0763C306.217 12.3567 306.43 11.2979 306.43 9.90021C306.43 8.97597 306.333 8.19946 306.14 7.57067C305.947 6.94188 305.674 6.46839 305.322 6.15021C304.969 5.82824 304.553 5.66726 304.072 5.66726C303.348 5.66726 302.776 6.02711 302.356 6.7468C301.935 7.46271 301.723 8.51385 301.719 9.90021C301.715 10.8282 301.808 11.6085 301.998 12.2411C302.191 12.8737 302.464 13.351 302.816 13.6729C303.168 13.9911 303.587 14.1502 304.072 14.1502ZM310.442 15.707V14.1843L314.482 10.2241C314.868 9.83393 315.19 9.48733 315.448 9.1843C315.706 8.88127 315.899 8.58771 316.028 8.30362C316.156 8.01953 316.221 7.7165 316.221 7.39453C316.221 7.02711 316.137 6.71271 315.971 6.45135C315.804 6.1862 315.575 5.98165 315.283 5.83771C314.992 5.69377 314.66 5.6218 314.289 5.6218C313.906 5.6218 313.571 5.70135 313.283 5.86044C312.995 6.01574 312.772 6.23733 312.613 6.52521C312.457 6.81309 312.38 7.15589 312.38 7.55362H310.374C310.374 6.81499 310.543 6.17294 310.88 5.62749C311.217 5.08203 311.681 4.65968 312.272 4.36044C312.867 4.0612 313.548 3.91158 314.317 3.91158C315.098 3.91158 315.783 4.05741 316.374 4.34908C316.965 4.64074 317.423 5.04036 317.749 5.54794C318.079 6.05552 318.243 6.63506 318.243 7.28658C318.243 7.72218 318.16 8.15021 317.993 8.57067C317.827 8.99112 317.533 9.45703 317.113 9.96839C316.696 10.4798 316.111 11.0991 315.357 11.8263L313.351 13.8661V13.9457H318.42V15.707H310.442ZM324.556 15.8661C323.738 15.8661 323.01 15.726 322.374 15.4457C321.742 15.1654 321.242 14.7752 320.874 14.2752C320.507 13.7752 320.312 13.1976 320.289 12.5423H322.425C322.444 12.8567 322.548 13.1313 322.738 13.3661C322.927 13.5972 323.179 13.7771 323.493 13.9059C323.808 14.0347 324.16 14.0991 324.55 14.0991C324.967 14.0991 325.336 14.0271 325.658 13.8832C325.98 13.7354 326.232 13.5309 326.414 13.2695C326.596 13.0082 326.685 12.707 326.681 12.3661C326.685 12.0138 326.594 11.7032 326.408 11.4343C326.223 11.1654 325.954 10.9551 325.601 10.8036C325.253 10.6521 324.832 10.5763 324.34 10.5763H323.312V8.95135H324.34C324.745 8.95135 325.099 8.88127 325.403 8.74112C325.709 8.60097 325.95 8.404 326.124 8.15021C326.298 7.89264 326.384 7.59529 326.38 7.25817C326.384 6.92862 326.31 6.64264 326.158 6.40021C326.01 6.154 325.8 5.96271 325.528 5.82635C325.259 5.68999 324.942 5.6218 324.579 5.6218C324.223 5.6218 323.893 5.6862 323.59 5.81499C323.287 5.94377 323.043 6.12749 322.857 6.36612C322.671 6.60097 322.573 6.88127 322.562 7.20703H320.533C320.548 6.55552 320.736 5.98355 321.096 5.49112C321.459 4.99491 321.944 4.60855 322.55 4.33203C323.156 4.05173 323.836 3.91158 324.59 3.91158C325.367 3.91158 326.041 4.05741 326.613 4.34908C327.189 4.63695 327.634 5.02521 327.948 5.51385C328.262 6.00249 328.42 6.54226 328.42 7.13317C328.423 7.78847 328.23 8.33771 327.84 8.78089C327.454 9.22408 326.946 9.51385 326.317 9.65021V9.74112C327.135 9.85476 327.762 10.1578 328.198 10.6502C328.637 11.1388 328.855 11.7468 328.851 12.4741C328.851 13.1256 328.666 13.7089 328.295 14.2241C327.927 14.7354 327.42 15.137 326.772 15.4286C326.128 15.7203 325.389 15.8661 324.556 15.8661Z" fill="white"/>
</svg>
