<svg width="138" height="30" viewBox="0 0 138 30" fill="none" xmlns="http://www.w3.org/2000/svg">
<path d="M3.6875 0.722656C4.53125 0.753906 5.25 1.06641 5.84375 1.66016C6.4375 2.22266 6.75 2.92578 6.78125 3.76953V11.5977H22.0156V3.76953C22.0469 2.89453 22.375 2.17578 23 1.61328C23.625 1.01953 24.375 0.722656 25.25 0.722656C26.0938 0.753906 26.8125 1.06641 27.4062 1.66016C28 2.22266 28.3125 2.92578 28.3438 3.76953V26.7383C28.1562 28.6133 27.125 29.6289 25.25 29.7852C24.375 29.7852 23.6094 29.5039 22.9531 28.9414C22.3281 28.3477 22.0156 27.6133 22.0156 26.7383V17.8789H6.78125V26.7383C6.59375 28.6133 5.5625 29.6289 3.6875 29.7852C2.8125 29.7852 2.04688 29.5039 1.39062 28.9414C0.765625 28.3477 0.453125 27.6133 0.453125 26.7383V3.76953C0.484375 2.89453 0.8125 2.17578 1.4375 1.61328C2.0625 1.01953 2.8125 0.722656 3.6875 0.722656ZM54.5 1.47266C56.6875 1.59766 58.4844 2.44141 59.8906 4.00391C61.2969 5.53516 62.3125 7.28516 62.9375 9.25391C63.5625 11.2227 63.875 13.2383 63.875 15.3008C63.875 17.3633 63.5625 19.3789 62.9375 21.3477C62.3438 23.3164 61.3281 25.082 59.8906 26.6445C58.4844 28.1758 56.6875 29.0039 54.5 29.1289H37.25C36.4062 29.0977 35.6875 28.8008 35.0938 28.2383C34.5312 27.6445 34.2344 26.9258 34.2031 26.082V14.457C34.2344 13.582 34.5625 12.8633 35.1875 12.3008C35.8125 11.707 36.5625 11.4102 37.4375 11.4102C38.2812 11.4414 39 11.7539 39.5938 12.3477C40.1875 12.9102 40.5 13.6133 40.5312 14.457V21.582C40.5312 22.4258 40.9688 22.8477 41.8438 22.8477H52.9062C54.0938 22.7852 55.0781 22.332 55.8594 21.4883C56.6406 20.6445 57.2031 19.6914 57.5469 18.6289C57.9219 17.5352 58.1094 16.4258 58.1094 15.3008C58.1094 14.1758 57.9219 13.082 57.5469 12.0195C57.2031 10.9258 56.6406 9.95703 55.8594 9.11328C55.0781 8.26953 54.0938 7.81641 52.9062 7.75391H37.25C35.375 7.59766 34.3594 6.58203 34.2031 4.70703C34.2031 3.83203 34.4844 3.08203 35.0469 2.45703C35.6406 1.83203 36.375 1.50391 37.25 1.47266H54.5ZM78.9219 0.207031C80.0156 0.207031 81.0781 0.394531 82.1094 0.769531C83.1719 1.14453 84.1875 1.69141 85.1562 2.41016C85.3125 2.56641 85.4844 2.72266 85.6719 2.87891C85.8281 2.72266 86 2.56641 86.1875 2.41016C87.1562 1.69141 88.1562 1.14453 89.1875 0.769531C90.25 0.394531 91.3125 0.207031 92.375 0.207031C93.4688 0.207031 94.5312 0.394531 95.5625 0.769531C96.625 1.14453 97.625 1.70703 98.5625 2.45703C99.5312 3.17578 100.375 4.14453 101.094 5.36328C101.844 6.58203 102.219 8.03516 102.219 9.72266V26.6445C102.031 28.5195 101 29.5352 99.125 29.6914C98.25 29.6914 97.4844 29.4102 96.8281 28.8477C96.2031 28.2539 95.8906 27.5195 95.8906 26.6445V10.0977C95.8906 9.34766 95.75 8.72266 95.4688 8.22266C95.1875 7.69141 94.875 7.28516 94.5312 7.00391C94.1875 6.69141 93.8281 6.47266 93.4531 6.34766C93.0781 6.19141 92.7031 6.11328 92.3281 6.11328C91.9531 6.11328 91.5781 6.19141 91.2031 6.34766C90.8594 6.47266 90.5156 6.69141 90.1719 7.00391C89.8281 7.28516 89.5156 7.69141 89.2344 8.22266C88.9531 8.72266 88.7969 9.34766 88.7656 10.0977V26.6445C88.5781 28.5195 87.5469 29.5352 85.6719 29.6914C84.7969 29.6914 84.0312 29.4102 83.375 28.8477C82.75 28.2539 82.4375 27.5195 82.4375 26.6445V10.0977C82.4375 9.34766 82.2969 8.72266 82.0156 8.22266C81.7344 7.69141 81.4219 7.28516 81.0781 7.00391C80.7344 6.69141 80.375 6.47266 80 6.34766C79.625 6.19141 79.25 6.11328 78.875 6.11328C78.5 6.11328 78.125 6.19141 77.75 6.34766C77.4062 6.47266 77.0625 6.69141 76.7188 7.00391C76.375 7.28516 76.0625 7.69141 75.7812 8.22266C75.5 8.72266 75.3438 9.34766 75.3125 10.0977V26.6445C75.1562 28.5195 74.1406 29.5352 72.2656 29.6914C71.3906 29.6914 70.625 29.4102 69.9688 28.8477C69.3438 28.2539 69.0312 27.5195 69.0312 26.6445V9.72266C69.0938 8.03516 69.4844 6.58203 70.2031 5.36328C70.9219 4.14453 71.7656 3.17578 72.7344 2.45703C73.7031 1.70703 74.7031 1.14453 75.7344 0.769531C76.7969 0.394531 77.8594 0.207031 78.9219 0.207031ZM107.141 25.9883C107.141 25.1133 107.438 24.3789 108.031 23.7852C108.656 23.1602 109.406 22.8477 110.281 22.8477H119.281V7.75391H110.281C109.406 7.75391 108.672 7.44141 108.078 6.81641C107.453 6.22266 107.141 5.48828 107.141 4.61328C107.141 3.73828 107.438 3.00391 108.031 2.41016C108.656 1.78516 109.406 1.47266 110.281 1.47266H134.562C135.438 1.47266 136.188 1.76953 136.812 2.36328C137.406 2.98828 137.703 3.73828 137.703 4.61328C137.703 5.48828 137.391 6.23828 136.766 6.86328C136.172 7.45703 135.438 7.75391 134.562 7.75391H125.609V22.8477H134.562C135.438 22.8477 136.188 23.1445 136.812 23.7383C137.406 24.3633 137.703 25.1133 137.703 25.9883C137.703 26.8633 137.391 27.6133 136.766 28.2383C136.172 28.832 135.438 29.1289 134.562 29.1289H110.281C109.406 29.1289 108.672 28.8164 108.078 28.1914C107.453 27.5977 107.141 26.8633 107.141 25.9883Z" fill="white"/>
</svg>
