<svg width="81" height="81" viewBox="0 0 81 81" fill="none" xmlns="http://www.w3.org/2000/svg">
<g clip-path="url(#clip0_517_1510)">
<path d="M80.5 10.221H40.5V17.7777L37.0833 11.8577C36.3519 10.591 35.2999 9.53909 34.0331 8.80776C32.7664 8.07642 31.3294 7.69141 29.8667 7.69141C28.4039 7.69141 26.967 8.07642 25.7002 8.80776C24.4334 9.53909 23.3814 10.591 22.65 11.8577L0.5 50.221H24.4367C23.6687 53.407 23.6334 56.7256 24.3335 59.9272C25.0336 63.1287 26.4509 66.1297 28.4786 68.7043C30.5063 71.2789 33.0916 73.36 36.04 74.7908C38.9883 76.2217 42.2228 76.9651 45.5 76.9651C48.7772 76.9651 52.0117 76.2217 54.96 74.7908C57.9084 73.36 60.4937 71.2789 62.5214 68.7043C64.5491 66.1297 65.9664 63.1287 66.6665 59.9272C67.3666 56.7256 67.3313 53.407 66.5633 50.221H80.5V10.221ZM17.8333 40.221L29.8667 19.3577L38.7 34.6577C35.3533 35.7674 32.328 37.6771 29.8867 40.221H17.8333ZM45.5 66.8877C43.1926 66.8877 40.9369 66.2035 39.0183 64.9215C37.0998 63.6396 35.6044 61.8175 34.7214 59.6857C33.8384 57.5539 33.6073 55.2081 34.0575 52.945C34.5077 50.6819 35.6188 48.6031 37.2504 46.9715C38.882 45.3398 40.9608 44.2287 43.2239 43.7785C45.4871 43.3284 47.8328 43.5594 49.9646 44.4424C52.0964 45.3255 53.9185 46.8208 55.2005 48.7394C56.4824 50.658 57.1667 52.9136 57.1667 55.221C57.1667 58.3152 55.9375 61.2827 53.7496 63.4706C51.5617 65.6585 48.5942 66.8877 45.5 66.8877ZM70.5 40.221H61.1133C58.2324 37.2211 54.5474 35.1159 50.5 34.1577V20.221H70.5V40.221Z" fill="white"/>
</g>
<defs>
<clipPath id="clip0_517_1510">
<rect width="80" height="80" fill="white" transform="translate(0.5 0.222656)"/>
</clipPath>
</defs>
</svg>
