<svg width="69" height="61" viewBox="0 0 69 61" fill="none" xmlns="http://www.w3.org/2000/svg">
<path d="M60 30.4619V26.0391C60 19.276 57.3134 12.79 52.5312 8.00784C47.749 3.22566 41.263 0.539062 34.5 0.539062C27.737 0.539062 21.251 3.22566 16.4688 8.00784C11.6866 12.79 9 19.276 9 26.0391V30.4619C6.4602 31.6878 4.31637 33.6034 2.81334 35.9897C1.31032 38.376 0.508685 41.1369 0.5 43.9571L0.5 44.9884C0.5045 48.9832 2.09343 52.8131 4.91819 55.6379C7.74295 58.4626 11.5729 60.0516 15.5677 60.0561H23.1667V28.8894H17.5V26.0391C17.5 21.5304 19.2911 17.2064 22.4792 14.0182C25.6673 10.8301 29.9913 9.03906 34.5 9.03906C39.0087 9.03906 43.3327 10.8301 46.5208 14.0182C49.7089 17.2064 51.5 21.5304 51.5 26.0391V28.8894H45.8333V51.5561H37.3333V60.0561H53.4323C57.4271 60.0516 61.257 58.4626 64.0818 55.6379C66.9066 52.8131 68.4955 48.9832 68.5 44.9884V43.9571C68.4913 41.1369 67.6897 38.376 66.1867 35.9897C64.6836 33.6034 62.5398 31.6878 60 30.4619ZM14.6667 51.4937C13.0947 51.2742 11.6552 50.4936 10.6138 49.2959C9.57228 48.0982 8.99911 46.5642 9 44.9771V43.9457C8.99911 42.3585 9.57228 40.8246 10.6138 39.6269C11.6552 38.4292 13.0947 37.6486 14.6667 37.4291V51.4937ZM60 44.9771C60.0009 46.5642 59.4277 48.0982 58.3862 49.2959C57.3448 50.4936 55.9053 51.2742 54.3333 51.4937V37.4517C55.9053 37.6712 57.3448 38.4519 58.3862 39.6496C59.4277 40.8473 60.0009 42.3812 60 43.9684V44.9771Z" fill="white"/>
</svg>
